<svg xmlns="http://www.w3.org/2000/svg" viewBox="0 0 762 222"><title>welcome</title><g id="Layer_2" data-name="Layer 2"><g id="Smily"><g id="startWelc"><path id="O" d="M468.16,78.89q-9.8,0-16.69,9.35t-6.9,22.56q0,13.22,6.94,22.56t16.65,9.35q9.87,0,16.73-9.3t6.85-22.61q0-13.3-6.85-22.61T468.16,78.89Z"/><path id="Welcome" d="M0,0V222H762V0ZM147.27,141.39q0,18.71-8.7,30.49t-22.49,11.79q-16.62,0-25.39-19.62-5.4,10.57-11.6,15.09t-15.28,4.53q-14.41,0-22.09-11.79T34,137.94V41.49H65.85v90.25c0,4.47.28,7.41.82,8.84A3.23,3.23,0,0,0,70,142.71q4.71,0,4.71-10.26v-91h31.81v90.25c0,4.33.29,7.25.86,8.74a3.3,3.3,0,0,0,3.37,2.23q4.71,0,4.7-11V41.49h31.82Zm78.36-60.06h-20.3q-8.22,0-8.22,6.91,0,4.07,2,5.64c1.3,1.05,3.63,1.58,7,1.58h17.55v30.89H202.83q-4.23,0-6,1.63t-1.76,5.48c0,2.92.6,4.83,1.8,5.75s3.66,1.37,7.37,1.37h21.39v39.63h-25q-17.62,0-26.95-10.92t-9.33-31.56V83.36q0-19.9,8.82-30.89t24.8-11h27.66ZM287,180.21h-8.47q-17.4,0-27.11-13.16t-9.72-36.53v-89h31.82v82.42q0,9.66,2.39,12.86t9.44,3.2H287Zm98.46-14.84q-14.62,18.3-38.13,18.3-23.9,0-40-20.79t-16.1-51.57q0-31,16.41-52.13T348.11,38q23.65,0,39.49,20.73,11,14.32,15.52,39.94l-34.09,3q-5.71-22.77-21.71-22.77-10.19,0-16.8,9.15t-6.63,23.27q0,13.62,6.51,22.51t16.45,8.89A19.27,19.27,0,0,0,363,134.89q6-7.83,7.09-22.46l33.3,1.12Q400.07,147.08,385.45,165.37ZM508,162.43q-16.36,21.24-39.8,21.24-23.28,0-39.73-21.34T412,110.8q0-30.48,16.58-51.62T469.1,38q22.72,0,39,21.44t16.26,51.32Q524.34,141.19,508,162.43Zm142.39,17.78H618.53V90c0-4.47-.27-7.44-.82-8.89a3.23,3.23,0,0,0-3.33-2.19q-4.71,0-4.7,10.37v91H577.86V90c0-4.4-.28-7.35-.86-8.84a3.3,3.3,0,0,0-3.37-2.24q-4.7,0-4.7,11.08v90.24H537.12v-100q0-18.58,8.69-30.38T568.38,38q16.46,0,25.31,19.61,5.41-10.56,11.6-15.09T620.57,38q14.41,0,22.1,11.79t7.68,33.94Zm78.36-98.88h-20.3q-8.22,0-8.23,6.91c0,2.71.66,4.59,2,5.64s3.63,1.58,7,1.58h17.55v30.89H705.91c-2.83,0-4.82.54-6,1.63s-1.76,2.91-1.76,5.48c0,2.92.6,4.83,1.8,5.75s3.66,1.37,7.37,1.37h21.39v39.63h-25q-17.62,0-27-10.92t-9.32-31.56V83.36q0-19.9,8.82-30.89t24.8-11h27.66Z"/></g></g></g></svg>