<svg xmlns="http://www.w3.org/2000/svg" viewBox="0 0 141.81 31.21"><g id="Logo"><g id="dev"><path id="period" d="M84.24,24.59a2.18,2.18,0,0,1,2.22-2.33,2.16,2.16,0,0,1,2.18,2.33,2.2,2.2,0,1,1-4.4,0Z"/><path id="d" d="M113.38,21.28c-.43.39-.92.8-1.47,1.22a14.6,14.6,0,0,1-1.77,1.16,11.42,11.42,0,0,1-2,.87,6.7,6.7,0,0,1-2.11.34,3.23,3.23,0,0,1-1.69-.41,3,3,0,0,1-1.16-1.26,6.86,6.86,0,0,1-.66-2.13,19,19,0,0,1-.21-3c-.22.34-.46.7-.72,1.06s-.52.72-.78,1-.51.63-.75.91-.44.5-.61.67a20.39,20.39,0,0,1-3.59,2.92,6.06,6.06,0,0,1-3.15,1,2.17,2.17,0,0,1-.84-.16,2.12,2.12,0,0,1-.62-.42,1.72,1.72,0,0,1-.38-.58,1.58,1.58,0,0,1-.13-.63,7.71,7.71,0,0,1,.34-2.24A14.77,14.77,0,0,1,92,19.39a22,22,0,0,1,1.19-2.13,22.3,22.3,0,0,1,1.32-1.83A16.94,16.94,0,0,1,95.73,14,11.37,11.37,0,0,1,97,12.77,5.71,5.71,0,0,1,98.19,12a2.21,2.21,0,0,1,1-.28,1.35,1.35,0,0,1,.52.11,4.29,4.29,0,0,1,.58.26c.18.11.35.21.5.32a2.35,2.35,0,0,1,.32.24c.11.12.23.27.35.43a.79.79,0,0,1,.19.51,2.25,2.25,0,0,1-.07.42.75.75,0,0,1-.25.4l-.12.14a.93.93,0,0,1-.14.14.9.9,0,0,1-.24.11,1.27,1.27,0,0,1-.39.05.65.65,0,0,1-.42-.16,1.79,1.79,0,0,1-.31-.36,2.55,2.55,0,0,1-.24-.41,1.18,1.18,0,0,0-.2-.3,1.84,1.84,0,0,0-1,.35,6.19,6.19,0,0,0-1.07.92A11.55,11.55,0,0,0,96.1,16.2c-.35.49-.68,1-1,1.54s-.62,1.07-.88,1.6-.51,1-.71,1.45-.35.83-.46,1.15a2.58,2.58,0,0,0-.17.66.89.89,0,0,0,.93.89,2.37,2.37,0,0,0,.86-.18,8,8,0,0,0,.93-.46,9.07,9.07,0,0,0,.89-.58c.27-.2.51-.38.7-.54.45-.38.92-.82,1.44-1.31s1-1,1.47-1.58a13.5,13.5,0,0,0,1.27-1.71,7.54,7.54,0,0,0,.84-1.75c.11-.36.21-.78.31-1.26s.18-1,.27-1.55.16-1.12.23-1.71.13-1.18.19-1.74.1-1.13.14-1.66.08-1,.12-1.44q.07-1.74,1.62-1.74a.6.6,0,0,1,.54.41,2.83,2.83,0,0,1,.19,1.14c0,.07,0,.28-.07.61s-.11.76-.19,1.27-.18,1.07-.28,1.7-.2,1.28-.3,1.95l-.3,2c-.1.67-.19,1.28-.27,1.84s-.15,1.06-.19,1.49a8.45,8.45,0,0,0-.07.92c0,.25,0,.56,0,.92a10.94,10.94,0,0,0,.06,1.12,9.12,9.12,0,0,0,.21,1.14,3.32,3.32,0,0,0,.42,1,2.3,2.3,0,0,0,.69.73,2,2,0,0,0,1.06.28,6.2,6.2,0,0,0,1.54-.2A8.7,8.7,0,0,0,109.7,22a12.76,12.76,0,0,0,1.63-.9c.55-.36,1.14-.75,1.75-1.19l.08-.08a.67.67,0,0,1,.15-.14l.15-.14a.21.21,0,0,1,.08-.06c.06,0,.12.07.18.2a1.54,1.54,0,0,1,.08.52,2,2,0,0,1-.08.53A1.21,1.21,0,0,1,113.38,21.28Z"/><path id="e" d="M129.1,16.2a1.76,1.76,0,0,1-.3.73,22.65,22.65,0,0,1-1.36,1.89c-.54.67-1.15,1.35-1.81,2s-1.36,1.33-2.1,2a19.76,19.76,0,0,1-2.26,1.66A13.86,13.86,0,0,1,119,25.62a5.73,5.73,0,0,1-2.14.44h-.09a4.35,4.35,0,0,1-3.5-1.34A5.48,5.48,0,0,1,112.11,21a14.47,14.47,0,0,1,.15-2,11.78,11.78,0,0,1,.52-2.17,11.46,11.46,0,0,1,1-2.2,11,11,0,0,1,1.65-2.13A5.94,5.94,0,0,1,117,11.32a3.64,3.64,0,0,1,1.57-.41.93.93,0,0,1,.29.06,1.78,1.78,0,0,1,.36.14,1.88,1.88,0,0,1,.65.5,3.81,3.81,0,0,1,.56.94,2.87,2.87,0,0,1,.18,1.06,4.35,4.35,0,0,1-.22,1.44,5,5,0,0,1-.63,1.26,8.46,8.46,0,0,1-1,1.24c-.4.42-.86.86-1.38,1.35l-.61.54-.77.63-.85.69-.86.69c.07,1.64,1,2.45,2.72,2.45a7.3,7.3,0,0,0,3.09-.76,9.82,9.82,0,0,0,1.51-.89c.46-.33.92-.67,1.36-1,.22-.18.46-.38.73-.62l.81-.75.83-.79.79-.76.5-.49.57-.56.74-.74a2,2,0,0,1,1-.59C129.05,15.94,129.1,16,129.1,16.2Zm-10.53-2a1.15,1.15,0,0,0-.22-.71.62.62,0,0,0-.53-.31,1.32,1.32,0,0,0-.59.19,2.88,2.88,0,0,0-.78.68A9.73,9.73,0,0,0,115,16.44a13.22,13.22,0,0,0-.82,3.18c.58-.46,1.06-.88,1.46-1.24s.75-.71,1.07-1,.44-.45.65-.69a8.87,8.87,0,0,0,.59-.78,4.53,4.53,0,0,0,.43-.85A2.44,2.44,0,0,0,118.57,14.15Z"/><path id="v" d="M141.81,15.82a.78.78,0,0,1-.15.51,1.58,1.58,0,0,1-.4.31l-.52.27a1.67,1.67,0,0,0-.51.37c-.27.27-.53.55-.79.85s-.53.59-.78.9-.51.61-.75.91l-.69.89c-.64.86-1.26,1.81-1.88,2.83s-1.18,2-1.7,3a5.27,5.27,0,0,1-.55.86,6.34,6.34,0,0,1-.61.64,3.08,3.08,0,0,1-.54.4.86.86,0,0,1-.37.14q-.57,0-1.17-.81c0-.11,0-.21,0-.29a2.09,2.09,0,0,0,0-.24,4.13,4.13,0,0,0-.11-1,7.48,7.48,0,0,0-.31-1.08c-.14-.39-.31-.8-.51-1.24s-.42-.93-.68-1.47a16.07,16.07,0,0,1-.67-1.57q-.28-.78-.48-1.5a13.79,13.79,0,0,1-.29-1.35,8.4,8.4,0,0,1-.09-1.16,3.21,3.21,0,0,1,.1-.78,3.09,3.09,0,0,1,.3-.75,1.66,1.66,0,0,1,.48-.57,1.09,1.09,0,0,1,.68-.22,1.22,1.22,0,0,1,.82.22,1.12,1.12,0,0,1,.24.82,2.1,2.1,0,0,1,0,.41c0,.15-.07.3-.11.46s-.07.29-.1.44a2.18,2.18,0,0,0-.05.42,6.1,6.1,0,0,0,.16,1.32,13.22,13.22,0,0,0,.4,1.38c.16.46.33.92.53,1.38s.38.91.57,1.35.43,1,.58,1.4.24.62.27.68a5.36,5.36,0,0,0,.74-.79c.28-.36.57-.77.88-1.23s.63-.94,1-1.45.62-1,.93-1.49l.36-.58.52-.83.58-.94.6-.93.53-.8c.17-.25.3-.43.4-.56a2.63,2.63,0,0,1,.89-.74,2.59,2.59,0,0,1,1.12-.26.84.84,0,0,1,.49.15,1.24,1.24,0,0,1,.37.35,1.65,1.65,0,0,1,.23.46A1.26,1.26,0,0,1,141.81,15.82Z"/></g><g id="mad"><path id="m" d="M26.41,24.74a1.58,1.58,0,0,1-.95.32,3.24,3.24,0,0,1-.7-.06.5.5,0,0,1-.37-.31,13.41,13.41,0,0,1-.78-3.3c-.29-1.82-.58-3.92-.85-6.29Q21.88,4.27,21.39,4c-.27.59-.69,1.71-1.25,3.35s-1.23,3.78-2,6.42Q17,18.07,16.33,19.67a5,5,0,0,1-1.11,2,3.88,3.88,0,0,1-.73.5,1.52,1.52,0,0,1-.72.24.87.87,0,0,1-.48-.09,1.5,1.5,0,0,1-.26-.57c-.1-.37-.33-1.53-.7-3.46s-.65-3.68-.85-5.24l-.22-1.55a49.8,49.8,0,0,0-.85-5.37,6.34,6.34,0,0,0-1.34,2.8Q8.44,11.07,7.63,15,6.85,18.1,5.74,25a1,1,0,0,1-.55.74,1.81,1.81,0,0,1-.93.33q-.58,0-.66-1.14c0-.77-.19-2.42-.5-5s-.59-4.77-.83-6.7A64.81,64.81,0,0,0,.86,5.67,12.65,12.65,0,0,1,.6,4.41a1.06,1.06,0,0,1,.54-.91A2.08,2.08,0,0,1,2.3,3.15c.2,0,.41.77.63,2.3s.46,3.45.7,5.77l.12,1.22q.13,1.22.33,2.55.71,5.67.77,7.11c.5-2.86,1.05-5.74,1.67-8.62l.33-1.63A27.75,27.75,0,0,1,8.63,5.91c.64-1.34,1.47-2,2.48-2,.32,0,.68.84,1.07,2.5a45.5,45.5,0,0,1,.93,5.83q.25,2.37.66,4.62A20.66,20.66,0,0,0,14.51,20c.15-.42.45-1.35.91-2.78s.88-2.78,1.28-4.07A107.64,107.64,0,0,1,20.54,2.08,4.42,4.42,0,0,1,21.26,1,1.77,1.77,0,0,1,22.5.6c.32,0,.67,1.41,1,4.22s.68,6.07.93,9.77c.66,5.23,1.27,8.08,1.81,8.54a1.37,1.37,0,0,1,.55,1Q26.83,24.42,26.41,24.74Z"/><path id="a" d="M49.57,15.14a1,1,0,0,1-.35.45,2.71,2.71,0,0,1-1.08.38l-1.1.21c.19.93.29,1.39.29,1.37.17.61.36,1.46.56,2.55.44,2.49.9,4.61,1.36,6.36a7.54,7.54,0,0,1,.19,1,.8.8,0,0,1-.3.63,1,1,0,0,1-.7.26.84.84,0,0,1-.67-.39,3,3,0,0,1-.4-.68c-.22-.84-.43-1.78-.61-2.81s-.4-2.29-.65-3.74c-.1-.64-.26-1.44-.48-2.39s-.37-1.57-.45-1.87c-1.45.2-4,.59-7.51,1.19L35.53,18l-.78,2.18-1,3q-1.3,4-1.85,6.22a1.91,1.91,0,0,1-.45.87,1.08,1.08,0,0,1-.81.35,1.14,1.14,0,0,1-.69-.22.78.78,0,0,1-.28-.63A7,7,0,0,1,30.09,28c.3-.88.47-1.4.52-1.58s.29-.81.59-1.7.73-2.13,1.24-3.49.84-2.28,1-2.72c-1.26.29-2.2.53-2.82.7a9.8,9.8,0,0,1-1.73.37.69.69,0,0,1-.62-.32,1.26,1.26,0,0,1-.2-.68.71.71,0,0,1,.22-.61,2.51,2.51,0,0,1,.74-.32c.94-.22,1.93-.44,3-.66l2.17-.45c.24-.71.43-1.31.55-1.81q.15-.48.39-1.2t.54-1.8l.55-1.88q1.41-5,1.63-5.66a5.27,5.27,0,0,1,.35-.82.52.52,0,0,1,.46-.29A3.67,3.67,0,0,1,40,3.34s.13-.16.25-.32a.88.88,0,0,1,.37-.33,1.3,1.3,0,0,1,.53-.09c.45,0,1,.5,1.54,1.52A26.89,26.89,0,0,1,44.37,7.7c.32.82.73,2,1.22,3.65s.82,2.68,1,3.2a6,6,0,0,0,1-.2l.5-.17a1.58,1.58,0,0,0,.4-.26,2.5,2.5,0,0,1,.41-.28.46.46,0,0,1,.41,0,.92.92,0,0,1,.48.93A1.33,1.33,0,0,1,49.57,15.14Zm-5.49-3.09c-.4-1.42-.77-2.57-1.11-3.46a20.33,20.33,0,0,0-1.34-2.81A5.52,5.52,0,0,0,40.26,4l-.4,1a19.25,19.25,0,0,0-1.08,2.55c-.59,1.78-1.53,4.71-2.81,8.81l4.33-.74L43.85,15l1-.14C44.73,14.4,44.47,13.47,44.08,12.05Z"/><path id="d-2" d="M72.64,14.4a29.83,29.83,0,0,1-5.4,5.88c-1.51,1.34-3.06,2.59-4.65,3.78a24.15,24.15,0,0,1-4,2.51,1.22,1.22,0,0,1-.34.61.93.93,0,0,1-.66.21.67.67,0,0,1-.48-.13A.59.59,0,0,1,57,26.8c0-.15,0-.77.16-1.85a35.52,35.52,0,0,0,.17-3.81q0-3.7-.11-6.7c-.05-2.32-.07-3.95-.07-4.89A12,12,0,0,1,57.58,6a1.26,1.26,0,0,1,1.72-.78.35.35,0,0,1,.24.33c0,.12-.15.56-.39,1.3a7.11,7.11,0,0,0-.35,2.11c0,1.84,0,3.87.11,6.06.05,2.82.08,4.76.08,5.85,0,1.85,0,3,0,3.33A18.33,18.33,0,0,0,62.56,22q2.26-1.62,3.83-3a27,27,0,0,0,4.69-5.18,8.65,8.65,0,0,0,1.48-4.77q0-3-3.75-4.11A35.58,35.58,0,0,0,59,3.89a36.38,36.38,0,0,0-5,.45,10.45,10.45,0,0,0-1.85.37,3,3,0,0,1-.78.18q-.3,0-.57-.48a1.86,1.86,0,0,1-.28-1c0-.12.09-.24.26-.35a2.05,2.05,0,0,1,.81-.24c1.48-.2,2.75-.35,3.79-.45s2.28-.14,3.69-.14a33.2,33.2,0,0,1,11,1.51Q74.3,5.3,74.3,8.93A9.93,9.93,0,0,1,72.64,14.4Z"/></g></g></svg>