<svg xmlns="http://www.w3.org/2000/svg" width="27.016" height="27.035" viewBox="0 0 27.016 27.035"><g transform="translate(-152.231 -151.982)"><path d="M152.231,585.505a1.165,1.165,0,0,0,1.165,1.165h8.5v.254a1.165,1.165,0,0,0,.392.871,3.372,3.372,0,0,1,1.162,2.459c.008.366,0,.682,0,.952h4.593c-.009-.27-.012-.585,0-.952a3.372,3.372,0,0,1,1.162-2.459,1.165,1.165,0,0,0,.392-.871v-.254h8.5a1.165,1.165,0,0,0,1.165-1.165v-.968H152.231Z" transform="translate(0 -415.754)" fill="#159bc4"/><path d="M321.663,781.25H311.036a2.108,2.108,0,0,0-2.108,2.108h0a.485.485,0,0,0,.486.485h13.872a.485.485,0,0,0,.486-.485h0A2.108,2.108,0,0,0,321.663,781.25Z" transform="translate(-150.611 -604.826)" fill="#159bc4"/><rect width="5.249" height="2.592" transform="translate(171.15 157.151)" fill="#159bc4"/><rect width="5.248" height="2.592" transform="translate(163.115 157.151)" fill="#159bc4"/><rect width="5.249" height="2.592" transform="translate(155.079 157.151)" fill="#159bc4"/><path d="M178.082,151.982H153.4a1.165,1.165,0,0,0-1.165,1.165v14.665h27.016V153.147A1.165,1.165,0,0,0,178.082,151.982Zm-2.114,1.624h.917a.486.486,0,0,1,0,.971h-.917a.486.486,0,0,1,0-.971Zm-10.343,0h.916a.486.486,0,0,1,0,.971h-.916a.486.486,0,0,1,0-.971Zm-2.758,0h.916a.486.486,0,0,1,0,.971h-.916a.486.486,0,0,1,0-.971Zm-.723,3.04a.466.466,0,0,1,.466-.466h6.258a.466.466,0,0,1,.466.466v3.6a.466.466,0,0,1-.466.466H162.61a.466.466,0,0,1-.466-.466Zm-4.793-3.04h.917a.486.486,0,0,1,0,.971h-.917a.486.486,0,0,1,0-.971Zm-2.758,0h.917a.486.486,0,0,1,0,.971h-.917a.486.486,0,0,1,0-.971Zm6.705,12.1a.486.486,0,0,1-.486.486h-6.219a.486.486,0,0,1-.486-.486v-1.59a.486.486,0,0,1,.486-.486h6.219a.486.486,0,0,1,.486.486Zm-.486-3.047h-6.219a.486.486,0,0,1,0-.971h6.219a.486.486,0,1,1,0,.971Zm.486-2.408a.466.466,0,0,1-.466.466h-6.259a.466.466,0,0,1-.466-.466v-3.6a.466.466,0,0,1,.466-.466h6.259a.466.466,0,0,1,.466.466Zm-.273-5.671h-.917a.486.486,0,0,1,0-.971h.917a.486.486,0,0,1,0,.971Zm8.309,11.126a.485.485,0,0,1-.486.486h-6.219a.486.486,0,0,1-.486-.486v-1.59a.486.486,0,0,1,.486-.486h6.219a.486.486,0,0,1,.486.486Zm-.486-3.047h-6.219a.486.486,0,0,1,0-.971h6.219a.486.486,0,0,1,0,.971Zm8.521,3.047a.486.486,0,0,1-.486.486h-6.219a.486.486,0,0,1-.486-.486v-1.59a.486.486,0,0,1,.486-.486h6.22a.486.486,0,0,1,.486.486v1.59Zm-.486-3.047h-6.219a.486.486,0,0,1,0-.971h6.22a.486.486,0,1,1,0,.971Zm.486-2.408a.466.466,0,0,1-.466.466h-6.259a.466.466,0,0,1-.466-.466v-3.6a.466.466,0,0,1,.466-.466H176.9a.466.466,0,0,1,.466.466Z" fill="#159bc4"/></g></svg>