<svg xmlns="http://www.w3.org/2000/svg" xmlns:xlink="http://www.w3.org/1999/xlink" width="165" height="165" viewBox="0 0 165 165"><defs><filter id="a" x="0" y="0" width="165" height="165" filterUnits="userSpaceOnUse"><feOffset dy="3" input="SourceAlpha"/><feGaussianBlur stdDeviation="3" result="b"/><feFlood flood-opacity="0.161"/><feComposite operator="in" in2="b"/><feComposite in="SourceGraphic"/></filter></defs><g transform="translate(9 6)"><g transform="matrix(1, 0, 0, 1, -9, -6)" filter="url(#a)"><circle cx="73.5" cy="73.5" r="73.5" transform="translate(9 6)" fill="#091c31"/></g><g transform="translate(-723 -1295)"><g transform="translate(723.603 1291)"><g transform="translate(75.996 -3.216)"><g transform="translate(-30 55.945)"><path d="M48.288,42.919l.3-.062.255-.062.264-.089a3.08,3.08,0,0,1,.484-.161,2.529,2.529,0,0,1,.484-.259,2.709,2.709,0,0,0,.484-1.937c-.088-1.571-.369-3.223.721-4.624C54.515,34,56.555,25.012,53.618,23.459c-3.192-1.687-2.753-3.883-2.709-6.365,0-1.982-.695-2.919-2.638-2.25-6.156,2.116-12.813,2.982-18.512,6.561a3.9,3.9,0,0,1-4.793-.071c-1.574-1.437-3.395-1.723-5.277-2.178-3.755-1.214-7.528-2.41-11.318-3.633-3.658-1.143-3.658-1.053-3.782,2.955-.053,1.348.818,3.008-.976,4C.1,24.4-.784,26.993.632,30.743a3.6,3.6,0,0,0,1.284,3.7c2.937,1.785,2.779,4.579,2.788,7.391l2-.687-.114-4.2c-.369-2.428,1.513-.893,2.269-1.321l.29-.652-1.073-.893c-3.28.589-5.822,0-6.209-4.017.237-5.526.308-5.624,4.45-5.436.712,0,2.19-.214,2.005.464C8,26.261,8.96,27.886,8.01,28.368c-1.671.839-1.574,1.526-.3,2.33.809.509.607.893.088,1.1-3.949,1.3.141,1.535.273,2.285l1.073.893a30.307,30.307,0,0,0,1.645-9.257c0-1.5-.413-2.892-1.935-3.017-2.075-.17-2.225-1.268-2.225-2.955,0-1.91.554-2.41,2.41-1.785,3.518,1.134,7.132,2.08,10.7,3.107,2.119.6,2.885,1.839,2.805,4.213-.2,5.526,0,11.051,0,16.586H24.4c0-5.2.158-10.391.088-15.577-.062-4.017,2.929-1.589,4.4-2.178,1.961-.777,1.829.964,1.759,2.223-.264,6.249,0,12.444-.677,18.657-.229,2.035-.431,3.231-2.788,3.249s-2.9-1.232-2.709-3.267a5.072,5.072,0,0,0-.1-1.027h0V41.839H22.582v2.08c-.088,1.223-.466,1.955-1.917,1.482-1.178-.393-2.41-.589-3.623-.893L6.7,41.151l-2,.687a1.087,1.087,0,0,0,.879,1.223C9.1,44.079,12.7,45.07,16.259,46.079c2.55,1.384,5.576,1.571,7.915,3.571a4.421,4.421,0,0,0,4.863.3c5.611-3.312,12.083-4.178,17.949-6.74h.141a3.362,3.362,0,0,1,.554-.143l.352-.1m0,0h.185m3.993-17.416c1.944,2.928.5,5.9-1.2,8.588H47.048a1.722,1.722,0,0,1,0-.473c.361-1.152-2.181-2.9.7-3.571.106-1.152-3.817-2.6.334-3.267-.334-1.294-1.847-.491-2.1-1.607.07-.143.167-.491.246-.491,2.137.045,4.723-1.232,6.051.768ZM46.934,41.973l-.079-.562c-3.834,1.223-7.809,2.33-11.582,3.9-2.638,1.08-3.016,0-2.955-2.151q.317-10.659.624-21.317l-.281-.08.281.08,1.829-.794c3.676-1.107,7.352-2.258,11.055-3.294,1.047-.295,2.761-1.339,2.849.812.062,1.446,1.2,3.99-2.04,4-2.225,0-3.245,1.214-3.078,3.571.237,3.3-.457,6.8,2.119,9.578h0c.739,1,1.812.893,2.858.893a8.761,8.761,0,0,0-.088-.955h0c0,.321.062.634.088.955-.053,1.785,1.2,3.981-1.627,4.776Z" transform="translate(0.014 -1.752)" fill="#b5aaaa"/><path d="M14.942,12.524c3.984,1.293,7.977,2.568,11.952,3.922a3.782,3.782,0,0,0,2.638-.053c4.292-1.477,8.592-2.911,12.884-4.4,2.287-.624,4.564-1.275,6.868-1.856.677-.167,1.451-.079,1.513.879a1.239,1.239,0,0,1-1.011,1.187q-10.544,3.315-21.071,6.6a2.357,2.357,0,0,1-1.328,0q-9.929-3.1-19.761-6.244c-.721-.229-1.759-.5-1.31-1.548s1.363-.572,2.111-.369C10.607,11.24,12.77,11.891,14.942,12.524Z" transform="translate(-0.736 -1.083)" fill="#b5aaaa"/><path d="M41.667,10.3c-.985,1.17-1.759,1.337-2.357-.361C37.12,4.1,34.614,2.091,29.8,2.144s-7.5,2.348-9.278,7.7c-.229.695-.334,1.346-1.2,1.275s-.879-.879-1.02-1.513C19.8,3.112,24.1-.239,30.639,0,36.628.245,40.638,3.982,41.667,10.3Z" transform="translate(-2.194 0.013)" fill="#b5aaaa"/><g transform="translate(1.877 15.983)"><path d="M52.966,36.608c-.053,1.759,1.2,3.922-1.627,4.7-3.887,1.258-7.862,2.348-11.635,3.9-2.638,1.064-3.016,0-2.955-2.119q.317-10.5.624-21l1.829-.783c3.676-1.091,7.352-2.225,11.055-3.245,1.047-.29,2.761-1.319,2.849.8.062,1.425,1.2,3.931-2.04,3.94-2.225,0-3.245,1.2-3.078,3.518.237,3.254-.457,6.7,2.119,9.436C50.847,36.7,51.92,36.59,52.966,36.608Z" transform="translate(-6.294 -17.555)" fill="none"/><path d="M27.786,42.685c0-5.118.158-10.237.088-15.346-.062-3.957,2.929-1.565,4.4-2.146,1.961-.765,1.829.95,1.759,2.19-.264,6.156,0,12.259-.677,18.38-.229,2.005-.431,3.184-2.788,3.2s-2.9-1.214-2.709-3.219a4.925,4.925,0,0,0-.1-1.011Z" transform="translate(-5.211 -18.453)" fill="none"/><path d="M58.6,26.658c-1.328-1.97-3.914-.712-5.963-.712-.079,0-.176.343-.246.484.255,1.1,1.759.308,2.1,1.583-4.151.66-.229,2.084-.334,3.219-2.885.624-.343,2.348-.7,3.518a1.671,1.671,0,0,0,0,.466H57.42C59.083,32.471,60.542,29.543,58.6,26.658Z" transform="translate(-8.181 -18.519)" fill="none"/><path d="M8.329,35.137c-3.28.58-5.822,0-6.209-3.957.237-5.444.308-5.54,4.45-5.356.712,0,2.19-.211,2.005.457-.317,1.152.642,2.753-.308,3.228-1.671.827-1.574,1.5-.3,2.3.809.5.607.879.088,1.082C4.108,34.169,8.171,34.4,8.329,35.137Z" transform="translate(-2.12 -18.546)" fill="none"/><path d="M23.445,25.509c.079-2.339-.686-3.562-2.805-4.151-3.571-1.011-7.167-1.944-10.7-3.06-1.856-.589-2.41-.1-2.41,1.759,0,1.662.15,2.744,2.225,2.911,1.521.123,1.926,1.5,1.935,2.973a29.461,29.461,0,0,1-1.645,9.146l-.29.642c-.756.422-2.638-1.091-2.269,1.3,0,1.381.079,2.761.114,4.142L17.931,44.5a36.24,36.24,0,0,1,3.623.879c1.451.466,1.829-.255,1.917-1.46V41.867C23.445,36.4,23.243,30.953,23.445,25.509Z" transform="translate(-2.761 -17.616)" fill="none"/></g></g></g><g transform="translate(0 92.343) rotate(-90)"><circle cx="10" cy="10" r="10" transform="translate(5 63.466)" fill="#b5aaaa"/><path d="M2.5,0h0A2.5,2.5,0,0,1,5,2.5V49.917A.083.083,0,0,1,4.917,50H.083A.083.083,0,0,1,0,49.917V2.5A2.5,2.5,0,0,1,2.5,0Z" transform="translate(13 2.821)" fill="#b5aaaa"/><path d="M.083,0H4.917A.083.083,0,0,1,5,.083V47.5A2.5,2.5,0,0,1,2.5,50h0A2.5,2.5,0,0,1,0,47.5V.083A.083.083,0,0,1,.083,0Z" transform="translate(13 93.646)" fill="#b5aaaa"/></g></g><text transform="translate(799 1382)" fill="#e5dbdb" stroke="#091c31" stroke-width="1" font-size="40" font-family="Norwester-Regular, Norwester"><tspan x="-52.44" y="0">skills</tspan></text></g></g></svg>