<svg viewBox="0 0 195 196"><defs><style>.cls-1{opacity:0.25;}.cls-2{fill:#091c31;}.cls-3{fill:#b5aaaa;}.cls-4{fill:none;}.cls-5{fill:#dedede;}</style></defs><g id="Layer_2" data-name="Layer 2"><g id="skill-title"><g id="bg-circle"><image class="cls-1" width="195" height="196"/><circle class="cls-2" cx="97.5" cy="95.06" r="73.5"/></g><g id="circ-lines"><circle id="circ-center" class="cls-3" cx="98.47" cy="94.99" r="10"/><rect id="lines-left" class="cls-3" x="27" y="92.49" width="50" height="5" rx="2.18"/><rect id="lines-right" class="cls-3" x="118.49" y="92.49" width="50" height="5" rx="2.18"/></g><g id="book"><g id="book-lines"><path id="lower" class="cls-3" d="M118.75,111.61l.3-.06.25-.06.27-.09a2.7,2.7,0,0,1,.48-.16,2.44,2.44,0,0,1,.48-.25,2.62,2.62,0,0,0,.49-1.91c-.09-1.55-.37-3.18.72-4.56C125,102.82,127,94,124.08,92.44c-3.19-1.66-2.75-3.83-2.71-6.27,0-2-.69-2.88-2.64-2.22-6.15,2.09-12.81,2.94-18.51,6.47a4,4,0,0,1-4.79-.07c-1.58-1.42-3.4-1.7-5.28-2.15-3.75-1.2-7.53-2.37-11.32-3.58s-3.66-1-3.78,2.91c0,1.33.82,3-1,3.94-3.52,1.9-4.4,4.45-3,8.14a3.51,3.51,0,0,0,1.29,3.65c2.94,1.76,2.78,4.52,2.79,7.29l2-.68-.11-4.14c-.37-2.4,1.51-.88,2.27-1.31l.29-.64-1.08-.88c-3.28.58-5.82,0-6.2-4,.23-5.45.3-5.54,4.44-5.36.72,0,2.19-.21,2,.46-.32,1.15.64,2.75-.31,3.23-1.67.82-1.57,1.5-.3,2.29.81.5.61.88.09,1.08-4,1.29.14,1.51.27,2.25l1.08.88a29.49,29.49,0,0,0,1.64-9.12c0-1.47-.41-2.85-1.93-3-2.08-.17-2.23-1.25-2.23-2.91,0-1.88.56-2.37,2.41-1.76,3.52,1.12,7.13,2,10.7,3.06,2.12.59,2.89,1.81,2.81,4.15-.2,5.45,0,10.89,0,16.34h1.85c0-5.12.16-10.23.09-15.34-.06-4,2.93-1.57,4.4-2.15,2-.76,1.83,1,1.76,2.19-.27,6.16,0,12.26-.68,18.38-.23,2-.43,3.18-2.79,3.2s-2.9-1.21-2.71-3.22a4.27,4.27,0,0,0-.09-1h0v-2.07H93v2c-.08,1.21-.46,1.93-1.91,1.46-1.18-.38-2.41-.58-3.63-.87l-10.34-3.31-2,.68a1.06,1.06,0,0,0,.87,1.2c3.52,1,7.12,2,10.68,3,2.55,1.37,5.58,1.55,7.92,3.52a4.47,4.47,0,0,0,4.86.3c5.61-3.26,12.08-4.12,18-6.64h.14a3.41,3.41,0,0,1,.55-.14l.35-.1m0,0h.19m4-17.15c2,2.88.5,5.81-1.19,8.46h-4a1.85,1.85,0,0,1,0-.47c.36-1.14-2.18-2.86.7-3.52.11-1.13-3.81-2.56.34-3.22-.34-1.27-1.85-.48-2.1-1.58.07-.14.16-.48.24-.48,2.14,0,4.72-1.22,6,.75Zm-5.27,16.17-.08-.56c-3.84,1.21-7.81,2.3-11.59,3.85-2.63,1.06-3,0-3-2.12q.31-10.5.62-21l-.28-.08.28.08,1.83-.79c3.68-1.09,7.35-2.22,11.06-3.24,1-.29,2.76-1.32,2.85.8.06,1.42,1.2,3.93-2,3.94-2.23,0-3.25,1.19-3.08,3.52.24,3.25-.46,6.7,2.12,9.43h0c.74,1,1.81.88,2.86.88,0-.31-.06-.62-.09-.94h0c0,.32.06.63.09.94-.06,1.76,1.19,3.92-1.63,4.71Z"/><path id="middle" class="cls-3" d="M84.65,82.18c4,1.3,8,2.57,12,3.93a3.72,3.72,0,0,0,2.63-.06c4.3-1.47,8.6-2.91,12.89-4.39,2.28-.63,4.56-1.28,6.87-1.86.67-.17,1.45-.08,1.51.88a1.25,1.25,0,0,1-1,1.19Q109,85.19,98.43,88.46a2.32,2.32,0,0,1-1.33,0q-9.93-3.09-19.76-6.24c-.72-.23-1.76-.5-1.31-1.55s1.36-.57,2.11-.37C80.32,80.9,82.48,81.55,84.65,82.18Z"/><path id="top" class="cls-3" d="M109.92,81.17c-1,1.17-1.76,1.34-2.36-.36C105.37,75,102.87,73,98.06,73s-7.5,2.35-9.28,7.7c-.23.7-.34,1.35-1.21,1.28s-.88-.88-1-1.51c1.5-6.5,5.8-9.85,12.34-9.62C104.88,71.12,108.89,74.86,109.92,81.17Z"/></g><g id="book-area"><path class="cls-4" d="M119,105.37c-.06,1.75,1.19,3.92-1.63,4.7-3.89,1.26-7.86,2.35-11.64,3.9-2.63,1.06-3,0-3-2.12q.31-10.5.62-21l1.83-.79c3.68-1.09,7.35-2.22,11.06-3.24,1-.29,2.76-1.32,2.85.8.06,1.42,1.2,3.93-2,3.94-2.23,0-3.25,1.19-3.08,3.52.24,3.25-.46,6.7,2.12,9.43C116.88,105.45,118,105.35,119,105.37Z"/><path class="cls-4" d="M94.9,110.55c0-5.12.16-10.24.09-15.35-.06-4,2.93-1.57,4.39-2.15,2-.76,1.83,1,1.76,2.19-.26,6.16,0,12.26-.67,18.38-.23,2-.43,3.19-2.79,3.2s-2.9-1.21-2.71-3.21a5,5,0,0,0-.1-1Z"/><path class="cls-4" d="M122.74,94.45c-1.33-2-3.91-.71-6-.71-.08,0-.18.34-.25.48.26,1.1,1.76.31,2.11,1.59-4.16.66-.23,2.08-.34,3.22-2.88.62-.34,2.34-.7,3.51a1.85,1.85,0,0,0,0,.47h4C123.23,100.27,124.69,97.34,122.74,94.45Z"/><path class="cls-4" d="M78.53,102.9c-3.28.58-5.82,0-6.2-4,.23-5.45.3-5.54,4.44-5.36.72,0,2.19-.21,2,.46-.32,1.15.64,2.75-.31,3.23-1.67.82-1.57,1.5-.3,2.29.81.5.61.88.09,1.08C74.31,101.94,78.38,102.16,78.53,102.9Z"/><path class="cls-4" d="M93,94.21c.08-2.34-.69-3.57-2.81-4.15-3.57-1-7.16-2-10.7-3.07-1.85-.58-2.41-.09-2.41,1.76,0,1.67.15,2.75,2.23,2.91,1.52.13,1.92,1.5,1.93,3a29.37,29.37,0,0,1-1.64,9.14l-.29.64c-.76.43-2.64-1.09-2.27,1.31,0,1.38.08,2.76.11,4.14l10.34,3.32c1.21.28,2.44.48,3.62.88,1.45.47,1.83-.25,1.92-1.46v-2C93,105.09,92.81,99.65,93,94.21Z"/></g></g><g id="skill-text"><path id="K" class="cls-5" d="M73.44,99.85c0,2.06,0,4.13,0,6.19,0,1.69-.89,2.37-2.43,2.41S68,108.09,68,106.1c0-8.14,0-16.27,0-24.4,0-2,1.65-2.2,3.23-2.14s2.28,1,2.24,2.59,0,3.14,0,5.32c2.48-1.77,2.83-4,3.74-5.82,1.28-2.53,3.57-2.68,5.47-1.83,2.43,1.07.48,3-.31,4-5.22,6.86-3.45,13.39.38,20.07.65,1.14,3,3.21,0,4.37-2.06.81-4.26.46-5.29-2.15-.87-2.19-1.82-4.35-2.73-6.52Z"/><path id="S" class="cls-5" d="M56.6,79.49c5.73.06,7.54,2.05,7,7.56-.15,1.4-.2,2.72-2,2.79-1.5.06-3.06.25-3.48-1.81-.26-1.22,0-3-1.9-2.86-1.13.06-1.43,1.2-1.47,2.26C54.62,89,54.6,90.5,56.55,91a2.57,2.57,0,0,1,.47.15c6.36,3,7.91,6.27,6.46,13.35a4.28,4.28,0,0,1-4,3.74c-3.25.37-6.77,1.2-9.25-1.71-1.7-2-1.42-4.69-.85-7.16.28-1.2,1.43-1.18,2.43-1.21,1.42,0,2.67.17,2.81,2,.1,1.21.31,2.45,1.69,2.7,1,.17,1.42-.79,1.52-1.6.18-1.46.45-3-1.25-3.93-.29-.15-.63-.18-.93-.32-6.44-3-8-6.3-6.36-13.35C50.06,80.3,51.58,79.45,56.6,79.49Z"/><path id="S-2" data-name="S" class="cls-5" d="M136.53,79.49c5.87,0,7.64,1.8,7.24,7.28-.11,1.57-.09,3.06-2.25,3.1-1.56,0-3,0-3.3-2.05-.16-1.09,0-2.5-1.58-2.66a1.5,1.5,0,0,0-1.63,1.5c-.18,1.44-.59,3,1,4A2.41,2.41,0,0,0,137,91c6.84.89,7.27,5.63,6.84,11.18-.38,5-1.93,6.48-7.78,6.31-5.2-.16-7-2-6.75-6.94.07-1.47-.16-3.2,2-3.38,1.65-.14,3.4-.36,3.62,2.14.13,1.34.53,3.1,2.28,2.26,1.46-.71,1.15-2.59.77-4a2.41,2.41,0,0,0-2.28-1.62c-6-.87-6.85-4.8-6.45-10.06C129.65,80.79,130.64,79.51,136.53,79.49Z"/><path id="L" class="cls-5" d="M95.6,93.93c0-3.33,0-6.65,0-10,0-2.12-.48-4.53,3-4.46,3.19.07,2.58,2.35,2.59,4.24,0,4.82.25,9.66-.06,14.46-.24,3.77,1,5.14,4.74,4.71,2.05-.23,4.44-.55,4.26,3-.16,3.26-2.47,2.59-4.27,2.57-12.47-.14-9.93,1.67-10.23-10.06C95.57,96.92,95.6,95.42,95.6,93.93Z"/><path id="L-2" data-name="L" class="cls-5" d="M113.44,94c0-3.82,0-7.64,0-11.46,0-2.07.77-3,2.9-3s2.73,1.2,2.71,3.17c-.07,5.15.19,10.31-.09,15.45-.2,3.66.85,5.24,4.65,4.8,2-.23,4.47-.69,4.35,2.9-.11,3.24-2.36,2.68-4.2,2.65-12.59-.14-10,1.64-10.31-10,0-1.49,0-3,0-4.49Z"/><path id="I" class="cls-5" d="M92.27,94.41c0,3.64,0,7.29,0,10.92,0,2-.45,3.16-2.69,3.16s-2.92-.92-2.91-3q.06-11.42,0-22.83c0-2,.55-3.11,2.75-3.16,2.6-.07,2.89,1.43,2.85,3.5C92.22,86.8,92.27,90.61,92.27,94.41Z"/></g></g></g></svg>