<svg xmlns="http://www.w3.org/2000/svg" xmlns:xlink="http://www.w3.org/1999/xlink" width="336.289" height="57.764" viewBox="0 0 336.289 57.764"><defs><filter id="a" x="0" y="0" width="336.289" height="36" filterUnits="userSpaceOnUse"><feOffset dy="3" input="SourceAlpha"/><feGaussianBlur stdDeviation="3" result="b"/><feFlood flood-opacity="0.161"/><feComposite operator="in" in2="b"/><feComposite in="SourceGraphic"/></filter><filter id="c" x="37.616" y="21.764" width="261.704" height="36" filterUnits="userSpaceOnUse"><feOffset dy="3" input="SourceAlpha"/><feGaussianBlur stdDeviation="3" result="d"/><feFlood flood-opacity="0.161"/><feComposite operator="in" in2="d"/><feComposite in="SourceGraphic"/></filter></defs><g transform="translate(9 6)"><g transform="matrix(1, 0, 0, 1, -9, -6)" filter="url(#a)"><path d="M2.944,0h312.4c1.626,0,2.944,4.029,2.944,9s-1.318,9-2.944,9H2.944C1.318,18,0,13.971,0,9S1.318,0,2.944,0Z" transform="translate(9 6)" fill="#091e36"/></g><g transform="matrix(1, 0, 0, 1, -9, -6)" filter="url(#c)"><path d="M2.254,0h239.2C242.7,0,243.7,4.029,243.7,9s-1.009,9-2.254,9H2.254C1.009,18,0,13.971,0,9S1.009,0,2.254,0Z" transform="translate(46.62 27.76)" fill="#091e36"/></g><text transform="translate(160.595 30)" fill="#e5dbdb" font-size="20" font-family="OpenSans-Bold, Open Sans" font-weight="700" letter-spacing="0.1em"><tspan x="-97.101" y="0">Always Aim High</tspan></text></g></svg>