<svg xmlns="http://www.w3.org/2000/svg" viewBox="0 0 55.05 48.26"><defs><style>.cls-1{fill:#c3c3c3;}.cls-2{fill:none;}</style></defs><g id="skill-title"><g id="book"><g id="book-lines"><path id="lower" class="cls-1" d="M48.3,40.75l.3-.06.26-.07.26-.08a3,3,0,0,1,.48-.16,2.87,2.87,0,0,1,.49-.26,2.65,2.65,0,0,0,.48-1.91c-.09-1.54-.37-3.17.72-4.55,3.24-1.7,5.28-10.55,2.34-12.08-3.19-1.67-2.75-3.83-2.71-6.28,0-2-.69-2.87-2.64-2.21C42.13,15.17,35.47,16,29.77,19.55A4,4,0,0,1,25,19.48c-1.58-1.41-3.4-1.7-5.28-2.14C16,16.14,12.17,15,8.38,13.76s-3.65-1-3.78,2.91c0,1.33.82,3-1,3.94-3.52,1.9-4.4,4.45-3,8.14A3.51,3.51,0,0,0,1.93,32.4c2.94,1.76,2.78,4.51,2.79,7.28l2-.67L6.6,34.86c-.37-2.39,1.51-.88,2.27-1.3l.29-.64L8.09,32c-3.29.58-5.83,0-6.21-4,.23-5.44.3-5.54,4.45-5.35.71,0,2.19-.21,2,.45C8,24.34,9,25.94,8,26.41c-1.67.83-1.57,1.51-.3,2.3.81.5.61.88.09,1.08C3.86,31.07,8,31.3,8.09,32l1.07.88A29.49,29.49,0,0,0,10.8,23.8c0-1.48-.41-2.85-1.93-3-2.08-.17-2.23-1.25-2.23-2.91,0-1.89.56-2.38,2.41-1.76,3.52,1.11,7.13,2.05,10.71,3.06,2.11.59,2.88,1.81,2.8,4.15-.2,5.44,0,10.89,0,16.34h1.86c0-5.12.15-10.24.08-15.35-.06-3.95,2.93-1.56,4.4-2.14,2-.77,1.83,1,1.76,2.19-.26,6.15,0,12.26-.68,18.38-.23,2-.43,3.18-2.78,3.2s-2.91-1.22-2.71-3.22a4.87,4.87,0,0,0-.1-1h0V39.68H22.6v2c-.09,1.21-.47,1.93-1.92,1.46-1.18-.39-2.41-.58-3.62-.88L6.71,39l-2,.67a1.07,1.07,0,0,0,.88,1.21c3.51,1,7.11,2,10.67,3,2.55,1.36,5.58,1.55,7.92,3.52a4.47,4.47,0,0,0,4.86.3c5.61-3.27,12.08-4.12,18-6.64h.14a2.78,2.78,0,0,1,.55-.14l.36-.1m0,0h.18m4-17.16c2,2.89.5,5.81-1.19,8.46h-4a1.77,1.77,0,0,1,0-.46c.36-1.14-2.18-2.86.7-3.52.11-1.14-3.81-2.56.34-3.22-.34-1.28-1.85-.48-2.1-1.58.07-.14.16-.49.24-.49,2.14.05,4.73-1.21,6,.76ZM47,39.81l-.08-.55c-3.84,1.21-7.81,2.3-11.58,3.84-2.64,1.07-3,0-3-2.12L33,20l-.29-.08L33,20l1.82-.78C38.46,18.11,42.14,17,45.84,16c1-.29,2.76-1.32,2.85.8.06,1.42,1.2,3.93-2,3.94-2.23,0-3.25,1.19-3.08,3.51.24,3.26-.46,6.7,2.12,9.44h0c.74,1,1.81.88,2.86.88,0-.32-.06-.63-.09-.94h0c0,.31.06.62.09.94-.06,1.76,1.19,3.92-1.63,4.7Z"/><path id="middle" class="cls-1" d="M14.21,11.32c4,1.29,8,2.57,12,3.92a3.81,3.81,0,0,0,2.64-.05c4.29-1.48,8.59-2.91,12.88-4.4,2.29-.62,4.56-1.27,6.87-1.85.67-.17,1.45-.08,1.51.88a1.23,1.23,0,0,1-1,1.18L28,17.6a2.32,2.32,0,0,1-1.33,0q-9.93-3.09-19.76-6.24c-.72-.23-1.76-.5-1.31-1.55s1.36-.57,2.11-.37C9.87,10,12,10.69,14.21,11.32Z"/><path id="top" class="cls-1" d="M39.47,10.31c-1,1.17-1.76,1.34-2.36-.36-2.18-5.84-4.69-7.85-9.5-7.79s-7.5,2.35-9.28,7.7c-.23.7-.33,1.35-1.2,1.28s-.88-.88-1-1.52C17.6,3.12,21.9-.23,28.44,0,34.43.26,38.44,4,39.47,10.31Z"/></g><g id="book-area"><path class="cls-2" d="M48.55,34.5c-.06,1.76,1.19,3.92-1.63,4.71C43,40.47,39.06,41.56,35.29,43.1c-2.64,1.07-3,0-3-2.12L33,20l1.82-.78C38.46,18.11,42.14,17,45.84,16c1-.29,2.76-1.32,2.85.8.06,1.42,1.2,3.93-2,3.94-2.23,0-3.25,1.19-3.08,3.51.24,3.26-.46,6.7,2.12,9.44C46.43,34.59,47.5,34.49,48.55,34.5Z"/><path class="cls-2" d="M24.45,39.68c0-5.12.16-10.23.09-15.34-.06-4,2.93-1.57,4.4-2.15,2-.76,1.83.95,1.76,2.19-.27,6.16,0,12.26-.68,18.38-.23,2-.43,3.18-2.79,3.2s-2.9-1.21-2.71-3.22a4.87,4.87,0,0,0-.1-1Z"/><path class="cls-2" d="M52.29,23.59c-1.32-2-3.91-.71-6-.71-.08,0-.17.34-.24.48.25,1.1,1.75.31,2.1,1.58C44,25.6,48,27,47.85,28.16c-2.88.63-.34,2.35-.7,3.52a1.85,1.85,0,0,0,0,.47h4C52.78,29.4,54.24,26.47,52.29,23.59Z"/><path class="cls-2" d="M8.09,32c-3.29.58-5.83,0-6.21-4,.23-5.44.3-5.54,4.45-5.35.71,0,2.19-.21,2,.45C8,24.34,9,25.94,8,26.41c-1.67.83-1.57,1.51-.3,2.3.81.5.61.88.09,1.08C3.86,31.07,7.93,31.3,8.09,32Z"/><path class="cls-2" d="M22.56,23.34c.08-2.34-.69-3.56-2.8-4.15-3.58-1-7.17-1.94-10.71-3.06-1.85-.59-2.41-.1-2.41,1.76,0,1.66.15,2.74,2.23,2.91,1.52.12,1.92,1.5,1.93,3a29.38,29.38,0,0,1-1.64,9.15l-.29.64c-.76.42-2.64-1.09-2.27,1.3,0,1.38.08,2.76.11,4.15l10.34,3.32a34.7,34.7,0,0,1,3.62.88c1.45.47,1.83-.26,1.92-1.46v-2C22.56,34.23,22.36,28.79,22.56,23.34Z"/></g></g></g></svg>