<svg xmlns="http://www.w3.org/2000/svg" width="45.237" height="21" viewBox="0 0 45.237 21"><path d="M136.4,177.56h9.137a2.423,2.423,0,1,0,0-1.615H140.4a2.423,2.423,0,0,0-4.556,0h-5.137a2.49,2.49,0,0,0-.808-1.123l5.322-5.339H145.54a2.423,2.423,0,1,0,0-1.615H134.9a.807.807,0,0,0-.573.234l-6.26,6.267a2.423,2.423,0,0,0-1.906,1.575h-4.991v-4.038a.807.807,0,0,0-.234-.573l-4.846-4.846a.807.807,0,0,0-.573-.234h-9.692a.808.808,0,0,0-.808.808v19.385a.808.808,0,0,0,.808.808h14.538a.808.808,0,0,0,.808-.808V177.56h4.991a2.423,2.423,0,0,0,4.556,0h5.137a2.422,2.422,0,0,0,1.906,1.615l6.26,6.268a.806.806,0,0,0,.573.194h.953a2.423,2.423,0,1,0,0-1.615h-.622l-5.339-5.339c.376-.288-3.338-.678-3.176-1.123Zm11.414-9.692a.808.808,0,1,1-.808.808A.807.807,0,0,1,147.818,167.868Zm-31.5,1.139,2.092,2.092h-2.092Zm3.231,16.63H106.626V167.868H114.7v4.038a.808.808,0,0,0,.808.808h4.038Zm28.269-1.615a.808.808,0,1,1-.808.808A.807.807,0,0,1,147.818,184.021Zm0-8.077a.808.808,0,1,1-.808.808A.807.807,0,0,1,147.818,175.944Zm-9.692,0a.808.808,0,1,1-.808.808A.807.807,0,0,1,138.125,175.944Zm-9.692,1.615a.808.808,0,1,1,.571-.237A.807.807,0,0,1,128.433,177.56Z" transform="translate(-105.011 -166.253)" fill="#169cc5"/></svg>