<svg id="welcSmilySvg" viewBox="0 0 762 223"><defs><style>.cls-1{fill:#fff;opacity:0.96;}.cls-2{fill:none;stroke:#000;stroke-miterlimit:10;}</style></defs><g id="welcSmily"><g id="endWelc"><g id="eyeOne"><path id="endEyeOne" class="cls-1" d="M325,111.32a16.69,16.69,0,0,0-16.42,15.37,1.5,1.5,0,0,0,1.5,1.63h0a1.51,1.51,0,0,0,1.49-1.36,13.47,13.47,0,0,1,26.87,0,1.49,1.49,0,0,0,1.49,1.36h0a1.51,1.51,0,0,0,1.5-1.63A16.71,16.71,0,0,0,325,111.32Z"/><circle id="startEyeOne" cx="325.5" cy="127.13" r="16.5"/></g><g id="eyeTwo"><path id="endEyeTwo" class="cls-1" d="M434,111.32a16.69,16.69,0,0,0-16.42,15.37,1.5,1.5,0,0,0,1.5,1.63h0a1.51,1.51,0,0,0,1.49-1.36,13.47,13.47,0,0,1,26.87,0,1.49,1.49,0,0,0,1.49,1.36h0a1.51,1.51,0,0,0,1.5-1.63A16.71,16.71,0,0,0,434,111.32Z"/><circle id="startEyeTwo" cx="433.5" cy="127.13" r="16.5"/></g><circle id="face" class="cls-2" cx="380.62" cy="111.5" r="111"/><g id="mouth"><g id="endMouth"><path d="M418.22,152.69c-1.05,18.23-20.46,26.67-36.52,26.93-18.36.29-35.9-9.45-38.56-28.8-.44-3.17-5.25-1.82-4.82,1.33,4.65,33.79,51,41.69,74.34,21.8a29.82,29.82,0,0,0,10.56-21.26c.19-3.22-4.81-3.21-5,0Z"/></g><g id="startMouth"><path d="M352.14,177.5h58c3.21,0,3.22-5,0-5h-58c-3.22,0-3.23,5,0,5Z"/></g></g></g><g id="startWelc"><path id="O" d="M468.16,79.52q-9.8,0-16.69,9.35t-6.9,22.56q0,13.21,6.94,22.56t16.65,9.35q9.87,0,16.73-9.3t6.85-22.61q0-13.31-6.85-22.61T468.16,79.52Z"/><path id="Welcome" d="M0,.63v222H762V.63ZM147.27,142q0,18.69-8.7,30.49t-22.49,11.78q-16.62,0-25.39-19.61-5.4,10.57-11.6,15.09t-15.28,4.52q-14.41,0-22.09-11.78T34,138.56V42.12H65.85v90.24c0,4.47.28,7.42.82,8.85A3.23,3.23,0,0,0,70,143.34q4.71,0,4.71-10.26v-91h31.81v90.24q0,6.51.86,8.74a3.3,3.3,0,0,0,3.37,2.24q4.71,0,4.7-11V42.12h31.82ZM225.63,82h-20.3q-8.22,0-8.22,6.91,0,4.06,2,5.64c1.3,1,3.63,1.57,7,1.57h17.55V127H202.83q-4.23,0-6,1.62t-1.76,5.49c0,2.91.6,4.83,1.8,5.74s3.66,1.38,7.37,1.38h21.39v39.63h-25q-17.62,0-26.95-10.93t-9.33-31.55V84q0-19.92,8.82-30.89t24.8-11h27.66ZM287,180.84h-8.47q-17.4,0-27.11-13.16t-9.72-36.54v-89h31.82v82.42q0,9.66,2.39,12.85t9.44,3.21H287ZM385.45,166q-14.62,18.3-38.13,18.29-23.9,0-40-20.78t-16.1-51.57q0-31,16.41-52.13t40.48-21.14q23.65,0,39.49,20.73,11,14.33,15.52,39.94L369,102.28q-5.71-22.75-21.71-22.76-10.19,0-16.8,9.15t-6.63,23.27q0,13.62,6.51,22.51t16.45,8.89A19.25,19.25,0,0,0,363,135.51q6-7.81,7.09-22.45l33.3,1.11Q400.07,147.71,385.45,166ZM508,163.06q-16.36,21.23-39.8,21.23-23.28,0-39.73-21.34T412,111.43q0-30.48,16.58-51.62T469.1,38.67q22.72,0,39,21.44t16.26,51.32Q524.34,141.82,508,163.06Zm142.39,17.78H618.53V90.6c0-4.47-.27-7.44-.82-8.89a3.23,3.23,0,0,0-3.33-2.19q-4.71,0-4.7,10.37v91H577.86V90.6c0-4.41-.28-7.35-.86-8.84a3.3,3.3,0,0,0-3.37-2.24q-4.7,0-4.7,11.08v90.24H537.12v-100q0-18.6,8.69-30.38t22.57-11.79q16.46,0,25.31,19.61,5.41-10.58,11.6-15.09t15.28-4.52q14.41,0,22.1,11.79t7.68,33.94ZM728.71,82h-20.3q-8.22,0-8.23,6.91c0,2.71.66,4.59,2,5.64s3.63,1.57,7,1.57h17.55V127H705.91c-2.83,0-4.82.54-6,1.62s-1.76,2.92-1.76,5.49c0,2.91.6,4.83,1.8,5.74s3.66,1.38,7.37,1.38h21.39v39.63h-25q-17.62,0-27-10.93t-9.32-31.55V84q0-19.92,8.82-30.89t24.8-11h27.66Z"/></g></g></svg>


<svg id="welcSmilySvg" viewBox="0 0 762 223">
	<defs>
	</defs>
	<g id="welcSmily">
		<g id="endWelc">
			<g id="eyeOne">
				<path id="endEyeOne" class="cls-1" d="M325,111.32a16.69,16.69,0,0,0-16.42,15.37,1.5,1.5,0,0,0,1.5,1.63h0a1.51,1.51,0,0,0,1.49-1.36,13.47,13.47,0,0,1,26.87,0,1.49,1.49,0,0,0,1.49,1.36h0a1.51,1.51,0,0,0,1.5-1.63A16.71,16.71,0,0,0,325,111.32Z"/>
				<circle id="startEyeOne" cx="325.5" cy="127.13" r="16.5"/>
			</g>
			<g id="eyeTwo">
				<path id="endEyeTwo" class="cls-1" d="M434,111.32a16.69,16.69,0,0,0-16.42,15.37,1.5,1.5,0,0,0,1.5,1.63h0a1.51,1.51,0,0,0,1.49-1.36,13.47,13.47,0,0,1,26.87,0,1.49,1.49,0,0,0,1.49,1.36h0a1.51,1.51,0,0,0,1.5-1.63A16.71,16.71,0,0,0,434,111.32Z"/>
				<circle id="startEyeTwo" cx="433.5" cy="127.13" r="16.5"/>
			</g>
			<circle id="face" class="cls-2" cx="380.62" cy="111.5" r="111"/>
			<g id="mouth">
				<g id="endMouth">
					<path d="M418.22,152.69c-1.05,18.23-20.46,26.67-36.52,26.93-18.36.29-35.9-9.45-38.56-28.8-.44-3.17-5.25-1.82-4.82,1.33,4.65,33.79,51,41.69,74.34,21.8a29.82,29.82,0,0,0,10.56-21.26c.19-3.22-4.81-3.21-5,0Z"/>
				</g>
				<g id="startMouth">
					<path d="M352.14,177.5h58c3.21,0,3.22-5,0-5h-58c-3.22,0-3.23,5,0,5Z"/>
				</g>
			</g>
		</g>
		<g id="startWelc">
			<path id="O" d="M468.16,79.52q-9.8,0-16.69,9.35t-6.9,22.56q0,13.21,6.94,22.56t16.65,9.35q9.87,0,16.73-9.3t6.85-22.61q0-13.31-6.85-22.61T468.16,79.52Z"/>
			<path id="Welcome" d="M0,.63v222H762V.63ZM147.27,142q0,18.69-8.7,30.49t-22.49,11.78q-16.62,0-25.39-19.61-5.4,10.57-11.6,15.09t-15.28,4.52q-14.41,0-22.09-11.78T34,138.56V42.12H65.85v90.24c0,4.47.28,7.42.82,8.85A3.23,3.23,0,0,0,70,143.34q4.71,0,4.71-10.26v-91h31.81v90.24q0,6.51.86,8.74a3.3,3.3,0,0,0,3.37,2.24q4.71,0,4.7-11V42.12h31.82ZM225.63,82h-20.3q-8.22,0-8.22,6.91,0,4.06,2,5.64c1.3,1,3.63,1.57,7,1.57h17.55V127H202.83q-4.23,0-6,1.62t-1.76,5.49c0,2.91.6,4.83,1.8,5.74s3.66,1.38,7.37,1.38h21.39v39.63h-25q-17.62,0-26.95-10.93t-9.33-31.55V84q0-19.92,8.82-30.89t24.8-11h27.66ZM287,180.84h-8.47q-17.4,0-27.11-13.16t-9.72-36.54v-89h31.82v82.42q0,9.66,2.39,12.85t9.44,3.21H287ZM385.45,166q-14.62,18.3-38.13,18.29-23.9,0-40-20.78t-16.1-51.57q0-31,16.41-52.13t40.48-21.14q23.65,0,39.49,20.73,11,14.33,15.52,39.94L369,102.28q-5.71-22.75-21.71-22.76-10.19,0-16.8,9.15t-6.63,23.27q0,13.62,6.51,22.51t16.45,8.89A19.25,19.25,0,0,0,363,135.51q6-7.81,7.09-22.45l33.3,1.11Q400.07,147.71,385.45,166ZM508,163.06q-16.36,21.23-39.8,21.23-23.28,0-39.73-21.34T412,111.43q0-30.48,16.58-51.62T469.1,38.67q22.72,0,39,21.44t16.26,51.32Q524.34,141.82,508,163.06Zm142.39,17.78H618.53V90.6c0-4.47-.27-7.44-.82-8.89a3.23,3.23,0,0,0-3.33-2.19q-4.71,0-4.7,10.37v91H577.86V90.6c0-4.41-.28-7.35-.86-8.84a3.3,3.3,0,0,0-3.37-2.24q-4.7,0-4.7,11.08v90.24H537.12v-100q0-18.6,8.69-30.38t22.57-11.79q16.46,0,25.31,19.61,5.41-10.58,11.6-15.09t15.28-4.52q14.41,0,22.1,11.79t7.68,33.94ZM728.71,82h-20.3q-8.22,0-8.23,6.91c0,2.71.66,4.59,2,5.64s3.63,1.57,7,1.57h17.55V127H705.91c-2.83,0-4.82.54-6,1.62s-1.76,2.92-1.76,5.49c0,2.91.6,4.83,1.8,5.74s3.66,1.38,7.37,1.38h21.39v39.63h-25q-17.62,0-27-10.93t-9.32-31.55V84q0-19.92,8.82-30.89t24.8-11h27.66Z"/>
		</g>
	</g>
</svg>