<svg xmlns="http://www.w3.org/2000/svg" viewBox="0 0 223 223"><defs><style>.cls-1{fill:#fff;opacity:0.96;}.cls-2{fill:none;stroke:#000;stroke-miterlimit:10;}</style></defs><title>smilyWithPaths</title><g id="Layer_2" data-name="Layer 2"><g id="Smily"><g id="endWelc"><g id="eyeOne"><path id="endEyeOne" class="cls-1" d="M55.93,111.32A16.71,16.71,0,0,0,39.5,126.69a1.5,1.5,0,0,0,1.5,1.63h0A1.5,1.5,0,0,0,42.49,127a13.47,13.47,0,0,1,26.87,0,1.5,1.5,0,0,0,1.49,1.36h0a1.5,1.5,0,0,0,1.5-1.63A16.71,16.71,0,0,0,55.93,111.32Z"/><circle id="startEyeOne" cx="56.38" cy="127.13" r="16.5"/></g><g id="eyeTwo"><path id="endEyeTwo" class="cls-1" d="M164.93,111.32a16.71,16.71,0,0,0-16.43,15.37,1.5,1.5,0,0,0,1.5,1.63h0a1.5,1.5,0,0,0,1.49-1.36,13.47,13.47,0,0,1,26.87,0,1.5,1.5,0,0,0,1.49,1.36h0a1.5,1.5,0,0,0,1.5-1.63A16.71,16.71,0,0,0,164.93,111.32Z"/><circle id="startEyeTwo" cx="164.38" cy="127.13" r="16.5"/></g><circle id="face" class="cls-2" cx="111.5" cy="111.5" r="111"/><g id="mouth"><g id="endMouth"><path d="M149.1,152.69c-1,18.23-20.46,26.67-36.52,26.93-18.35.29-35.89-9.45-38.56-28.8-.43-3.17-5.25-1.82-4.82,1.33,4.65,33.79,51,41.69,74.34,21.8a29.82,29.82,0,0,0,10.56-21.26c.19-3.22-4.81-3.21-5,0Z"/></g><g id="startMouth"><path d="M83,177.5h58c3.22,0,3.22-5,0-5H83c-3.22,0-3.22,5,0,5Z"/></g></g></g></g></g></svg>