<svg xmlns="http://www.w3.org/2000/svg" width="23.625" height="31.5" viewBox="0 0 23.625 31.5"><path d="M22.014,17.6a37.851,37.851,0,0,1-3.859,6.044,62,62,0,0,1-4.343,5.06,61.979,61.979,0,0,1-4.343-5.06A37.85,37.85,0,0,1,5.611,17.6a13.621,13.621,0,0,1-1.642-5.788,9.844,9.844,0,0,1,19.688,0A13.65,13.65,0,0,1,22.014,17.6Zm-8.2,13.9S25.625,20.306,25.625,11.813A11.813,11.813,0,1,0,2,11.813C2,20.306,13.813,31.5,13.813,31.5Z" transform="translate(-2)" fill="#21a7d0"/><path d="M10.906,12.844a3.938,3.938,0,1,1,3.938-3.937A3.937,3.937,0,0,1,10.906,12.844Zm0,1.969A5.906,5.906,0,1,0,5,8.906,5.906,5.906,0,0,0,10.906,14.813Z" transform="translate(0.906 2.906)" fill="#21a7d0"/></svg>