<svg xmlns="http://www.w3.org/2000/svg" width="207.787" height="45.255" viewBox="0 0 207.787 45.255"><g transform="translate(-70.399 476.601)"><g transform="translate(71 -476)"><g transform="translate(122.708 5.39)"><path d="M84.238,25.561a3.2,3.2,0,1,1,.936,2.292,3.228,3.228,0,0,1-.936-2.292Z" transform="translate(-84.238 4.246)" fill="#0081a9"/><path d="M123.957,29.228c-.63.573-1.35,1.174-2.156,1.79a21.416,21.416,0,0,1-2.591,1.7A16.755,16.755,0,0,1,116.277,34a9.831,9.831,0,0,1-3.1.5,4.739,4.739,0,0,1-2.48-.6A4.4,4.4,0,0,1,109,32.05a10.063,10.063,0,0,1-.969-3.125,27.875,27.875,0,0,1-.308-4.4c-.324.5-.674,1.036-1.057,1.555a15.976,15.976,0,0,1-1.145,1.467c-.381.412-.749.925-1.1,1.334s-.645.733-.894.982a29.915,29.915,0,0,1-5.27,4.278A8.89,8.89,0,0,1,93.631,35.6a3.184,3.184,0,0,1-1.233-.236,3.109,3.109,0,0,1-.909-.617,2.524,2.524,0,0,1-.557-.85,2.333,2.333,0,0,1-.192-.925,11.313,11.313,0,0,1,.5-3.285,21.674,21.674,0,0,1,1.35-3.241,32.279,32.279,0,0,1,1.746-3.125,32.722,32.722,0,0,1,1.936-2.684,24.86,24.86,0,0,1,1.79-2.1,16.681,16.681,0,0,1,1.863-1.814,8.376,8.376,0,0,1,1.746-1.13,3.241,3.241,0,0,1,1.467-.412,1.98,1.98,0,0,1,.762.161,6.291,6.291,0,0,1,.85.381c.259.161.518.308.733.469a3.448,3.448,0,0,1,.469.352c.161.176.337.4.518.63a1.158,1.158,0,0,1,.28.749,3.3,3.3,0,0,1-.1.617,1.1,1.1,0,0,1-.368.586l-.176.2a1.364,1.364,0,0,1-.2.2,1.319,1.319,0,0,1-.352.161,1.863,1.863,0,0,1-.573.073.953.953,0,0,1-.617-.236,2.625,2.625,0,0,1-.456-.518,3.744,3.744,0,0,1-.352-.6,1.731,1.731,0,0,0-.293-.44,2.7,2.7,0,0,0-1.467.518,9.07,9.07,0,0,0-1.57,1.35A16.946,16.946,0,0,0,98.6,21.766c-.518.718-1,1.467-1.467,2.259s-.909,1.57-1.3,2.348S95.092,27.839,94.8,28.5s-.518,1.218-.674,1.687a3.786,3.786,0,0,0-.259.969,1.3,1.3,0,0,0,1.366,1.3,3.477,3.477,0,0,0,1.262-.259,11.735,11.735,0,0,0,1.366-.674,13.308,13.308,0,0,0,1.3-.85c.4-.293.749-.557,1.036-.793.661-.557,1.35-1.2,2.112-1.923a23.286,23.286,0,0,0,2.156-2.319,19.806,19.806,0,0,0,1.863-2.508,11.061,11.061,0,0,0,1.233-2.568c.161-.518.308-1.145.456-1.847s.259-1.467.4-2.275.236-1.643.337-2.508.192-1.731.28-2.552.148-1.658.2-2.436.117-1.467.176-2.112q.1-2.552,2.376-2.552a.881.881,0,0,1,.793.6,4.146,4.146,0,0,1,.28,1.671,4.141,4.141,0,0,1-.1.894c-.1.485-.161,1.114-.28,1.863s-.259,1.57-.412,2.5-.293,1.879-.44,2.85l-.44,2.933c-.148.982-.28,1.879-.4,2.7s-.22,1.555-.28,2.187a12.388,12.388,0,0,0-.1,1.35v1.35a16.048,16.048,0,0,0,.088,1.643,13.385,13.385,0,0,0,.308,1.671,4.871,4.871,0,0,0,.617,1.467,3.369,3.369,0,0,0,1.013,1.07,2.933,2.933,0,0,0,1.555.412,9.1,9.1,0,0,0,2.259-.293,12.765,12.765,0,0,0,2.3-.881,18.721,18.721,0,0,0,2.392-1.321c.806-.518,1.671-1.1,2.568-1.746l.117-.117a.981.981,0,0,1,.22-.2l.22-.2a.308.308,0,0,1,.117-.088c.088,0,.176.1.259.293a2.26,2.26,0,0,1,.117.762,2.933,2.933,0,0,1-.117.777,1.775,1.775,0,0,1-.5.793Z" transform="translate(-81.206 -4.276)" fill="#0081a9"/><path d="M137.043,18.673a2.591,2.591,0,0,1-.44,1.07,33.227,33.227,0,0,1-2,2.772,34.771,34.771,0,0,1-2.656,2.933c-.969.954-2,1.951-3.081,2.933a28.994,28.994,0,0,1-3.317,2.436,20.334,20.334,0,0,1-3.33,1.671,8.4,8.4,0,0,1-3.14.645h-.132a6.382,6.382,0,0,1-5.135-1.967,8.032,8.032,0,0,1-1.7-5.457,21.235,21.235,0,0,1,.22-2.933,17.28,17.28,0,0,1,.762-3.184,16.812,16.812,0,0,1,1.467-3.228,16.14,16.14,0,0,1,2.42-3.125,8.713,8.713,0,0,1,2.3-1.731,5.34,5.34,0,0,1,2.3-.6,1.366,1.366,0,0,1,.425.088,2.612,2.612,0,0,1,.518.2,2.76,2.76,0,0,1,.954.733,5.591,5.591,0,0,1,.821,1.378,4.21,4.21,0,0,1,.259,1.555,6.385,6.385,0,0,1-.324,2.112,7.336,7.336,0,0,1-.925,1.847,12.413,12.413,0,0,1-1.467,1.814c-.586.617-1.262,1.262-2.024,1.98l-.894.793-1.13.925-1.246,1.013L115.3,26.364a3.459,3.459,0,0,0,3.99,3.594,10.709,10.709,0,0,0,4.534-1.114,14.41,14.41,0,0,0,2.215-1.3c.674-.485,1.35-.982,2-1.467.324-.259.674-.557,1.07-.909l1.189-1.1,1.218-1.158,1.158-1.114.733-.718.837-.821,1.086-1.086a2.936,2.936,0,0,1,1.467-.865C136.976,18.293,137.043,18.381,137.043,18.673ZM121.6,15.74a1.687,1.687,0,0,0-.324-1.036.909.909,0,0,0-.777-.456,1.936,1.936,0,0,0-.878.267,4.226,4.226,0,0,0-1.145,1,14.272,14.272,0,0,0-2.127,3.506,19.392,19.392,0,0,0-1.2,4.664c.85-.674,1.555-1.3,2.143-1.814s1.1-1.036,1.57-1.467a9.54,9.54,0,0,0,.953-1.013,13.015,13.015,0,0,0,.865-1.145A6.648,6.648,0,0,0,121.3,17a3.581,3.581,0,0,0,.28-1.334Z" transform="translate(-71.227 -1.176)" fill="#0081a9"/><path d="M148.606,16.52a1.146,1.146,0,0,1-.22.749,2.333,2.333,0,0,1-.586.456l-.762.4a2.448,2.448,0,0,0-.749.544c-.4.4-.777.806-1.158,1.246s-.777.865-1.145,1.321-.749.894-1.1,1.334l-1.013,1.3c-.938,1.262-1.847,2.656-2.757,4.146s-1.731,2.933-2.5,4.4a7.736,7.736,0,0,1-.806,1.262,9.294,9.294,0,0,1-.894.938,4.517,4.517,0,0,1-.793.586,1.262,1.262,0,0,1-.542.2q-.837,0-1.715-1.189V33.79a3.071,3.071,0,0,0,0-.352,6.06,6.06,0,0,0-.161-1.467,10.961,10.961,0,0,0-.456-1.586c-.2-.573-.456-1.174-.749-1.814s-.617-1.365-1-2.156a23.584,23.584,0,0,1-.982-2.3q-.412-1.145-.7-2.2a20.211,20.211,0,0,1-.425-1.98,12.33,12.33,0,0,1-.132-1.7,4.711,4.711,0,0,1,.148-1.145,4.534,4.534,0,0,1,.441-1.1,2.436,2.436,0,0,1,.7-.837,1.6,1.6,0,0,1,1-.324,1.79,1.79,0,0,1,1.2.324,1.643,1.643,0,0,1,.352,1.2,3.074,3.074,0,0,1,0,.6,3,3,0,0,1-.161.674c-.06.236-.1.425-.148.645a3.2,3.2,0,0,0-.073.617,8.95,8.95,0,0,0,.236,1.936,19.4,19.4,0,0,0,.586,2.024c.236.674.484,1.35.777,2.024s.557,1.334.837,1.98.63,1.467.85,2.055.352.909.4,1a7.86,7.86,0,0,0,1.086-1.158c.412-.518.837-1.13,1.3-1.814s.925-1.378,1.467-2.127.909-1.467,1.366-2.187l.518-.85.762-1.218.85-1.378.881-1.366.777-1.174c.259-.368.44-.63.586-.821a3.858,3.858,0,0,1,1.3-1.086,3.8,3.8,0,0,1,1.643-.381,1.233,1.233,0,0,1,.718.22,1.814,1.814,0,0,1,.542.518,2.425,2.425,0,0,1,.337.674,1.85,1.85,0,0,1,.075.767Z" transform="translate(-64.139 0.42)" fill="#0081a9"/></g><path d="M38.466,36.016a2.332,2.332,0,0,1-1.394.469,4.755,4.755,0,0,1-1.036-.088.733.733,0,0,1-.542-.456A19.674,19.674,0,0,1,34.349,31.1c-.425-2.671-.85-5.752-1.246-9.227q-1.3-15.888-2.011-16.285c-.4.865-1.013,2.508-1.834,4.923s-1.814,5.545-2.933,9.419a77.673,77.673,0,0,1-2.645,8.659,7.335,7.335,0,0,1-1.627,2.933,5.7,5.7,0,0,1-1.07.733,2.231,2.231,0,0,1-1.057.352,1.277,1.277,0,0,1-.7-.132,2.2,2.2,0,0,1-.381-.837c-.148-.544-.485-2.244-1.036-5.076s-.946-5.408-1.241-7.7L16.24,16.59a73.074,73.074,0,0,0-1.246-7.877,9.3,9.3,0,0,0-1.956,4.107q-.935,3.14-2.125,8.906Q9.767,26.273,8.14,36.4a1.467,1.467,0,0,1-.806,1.086,2.656,2.656,0,0,1-1.365.485q-.85,0-.969-1.671c0-1.13-.28-3.55-.733-7.335s-.865-7-1.218-9.831A95.09,95.09,0,0,0,.976,8.037,18.56,18.56,0,0,1,.6,6.19a1.555,1.555,0,0,1,.793-1.337,3.052,3.052,0,0,1,1.7-.518c.293,0,.6,1.13.925,3.368s.674,5.06,1.036,8.465l.176,1.79q.192,1.79.485,3.742,1.036,8.317,1.13,10.432C7.58,27.937,8.389,23.711,9.3,19.485l.485-2.392a40.714,40.714,0,0,1,2.6-8.716c.938-1.967,2.156-2.933,3.627-2.933.469,0,1,1.233,1.57,3.669a66.752,66.752,0,0,1,1.365,8.551q.368,3.477.969,6.778A30.316,30.316,0,0,0,21,29.048c.22-.617.661-1.98,1.334-4.078s1.3-4.078,1.879-5.959A157.924,157.924,0,0,1,29.853,2.77a6.478,6.478,0,0,1,1.062-1.583A2.591,2.591,0,0,1,32.729.6c.469,0,.982,2.073,1.467,6.19s1,8.906,1.366,14.334c.969,7.672,1.863,11.854,2.656,12.528a2.011,2.011,0,0,1,.806,1.467Q39.083,35.547,38.466,36.016Z" transform="translate(-0.6 -0.598)" fill="#016685" stroke="#016685" stroke-miterlimit="10" stroke-width="1.2"/><path d="M59.621,21a1.466,1.466,0,0,1-.518.661,3.975,3.975,0,0,1-1.586.557l-1.614.308c.28,1.365.425,2.039.425,2.011.259.894.518,2.143.821,3.742.645,3.653,1.321,6.763,2,9.328a11.068,11.068,0,0,1,.28,1.467,1.174,1.174,0,0,1-.44.925,1.467,1.467,0,0,1-1.036.381,1.233,1.233,0,0,1-.982-.573,4.4,4.4,0,0,1-.56-.995c-.324-1.233-.63-2.612-.894-4.122s-.586-3.368-.954-5.488c-.148-.938-.381-2.112-.7-3.506s-.542-2.3-.661-2.744c-2.127.293-5.869.865-11.017,1.746l-3.14.5-1.145,3.2-1.467,4.4q-1.907,5.869-2.715,9.126a2.8,2.8,0,0,1-.661,1.277,1.586,1.586,0,0,1-1.189.518,1.671,1.671,0,0,1-1.013-.324,1.145,1.145,0,0,1-.412-.925,10.269,10.269,0,0,1,.617-2.591c.44-1.3.689-2.055.762-2.319s.425-1.189.865-2.5,1.07-3.125,1.814-5.12,1.233-3.345,1.467-3.99c-1.847.425-3.228.777-4.146,1.036a14.378,14.378,0,0,1-2.539.542,1.013,1.013,0,0,1-.909-.469,1.847,1.847,0,0,1-.293-1,1.036,1.036,0,0,1,.324-.894,3.682,3.682,0,0,1,1.086-.469c1.378-.324,2.832-.645,4.4-.969l3.184-.661c.352-1.036.63-1.923.806-2.656q.22-.7.573-1.759t.793-2.64l.811-2.793q2.073-7.335,2.392-8.291a7.734,7.734,0,0,1,.518-1.2.762.762,0,0,1,.674-.425,5.384,5.384,0,0,1,1.951.381s.192-.236.368-.469a1.3,1.3,0,0,1,.542-.485,1.907,1.907,0,0,1,.777-.132c.661,0,1.467.733,2.259,2.231A39.452,39.452,0,0,1,52,10.081c.469,1.2,1.07,2.933,1.79,5.356s1.2,3.931,1.467,4.7a8.81,8.81,0,0,0,1.467-.293l.733-.259a2.332,2.332,0,0,0,.586-.381,3.67,3.67,0,0,1,.6-.412.674.674,0,0,1,.6,0,1.35,1.35,0,0,1,.7,1.366,1.951,1.951,0,0,1-.324.837Zm-8.053-4.534c-.586-2.073-1.13-3.77-1.63-5.076a29.828,29.828,0,0,0-1.967-4.122,8.1,8.1,0,0,0-2.011-2.612L45.375,6.12a28.243,28.243,0,0,0-1.583,3.736c-.865,2.612-2.244,6.91-4.122,12.924l6.353-1.086,5.2-.9,1.467-.2C52.519,19.912,52.138,18.546,51.568,16.463Z" transform="translate(12.222 0.335)" fill="#016685" stroke="#016685" stroke-miterlimit="10" stroke-width="1.2"/><path d="M82.973,20.1a43.764,43.764,0,0,1-7.924,8.626c-2.215,1.967-4.49,3.8-6.822,5.545a35.432,35.432,0,0,1-5.869,3.672,1.79,1.79,0,0,1-.5.894,1.365,1.365,0,0,1-.969.308.982.982,0,0,1-.7-.192.865.865,0,0,1-.161-.674,18.232,18.232,0,0,1,.236-2.715,52.106,52.106,0,0,0,.259-5.589q0-5.428-.161-9.831-.109-5.107-.1-7.175a17.619,17.619,0,0,1,.63-5.208,1.847,1.847,0,0,1,2.524-1.145.518.518,0,0,1,.352.485,15.105,15.105,0,0,1-.573,1.907,10.43,10.43,0,0,0-.518,3.1c0,2.7,0,5.677.161,8.89.073,4.146.117,7,.117,8.582v4.884a26.894,26.894,0,0,0,5.237-3.228q3.317-2.376,5.62-4.4a39.613,39.613,0,0,0,6.882-7.6,12.7,12.7,0,0,0,2.171-6.978q0-4.4-5.5-6.029A52.2,52.2,0,0,0,62.962,4.679a53.375,53.375,0,0,0-7.335.661,15.331,15.331,0,0,0-2.713.542,4.405,4.405,0,0,1-1.145.259q-.44,0-.837-.7a2.728,2.728,0,0,1-.412-1.467c0-.176.132-.352.381-.518A3.008,3.008,0,0,1,52.09,3.1c2.171-.293,4.034-.518,5.56-.661s3.345-.2,5.413-.2A48.712,48.712,0,0,1,79.2,4.448q6.219,2.288,6.219,7.615A14.57,14.57,0,0,1,82.984,20.1Z" transform="translate(22.719 0.146)" fill="#016685" stroke="#016685" stroke-miterlimit="10" stroke-width="1.2"/></g></g></svg>